<svg width="260" height="262" viewBox="0 0 260 262" fill="none" xmlns="http://www.w3.org/2000/svg">
<rect x="17.8936" y="162.52" width="192.553" height="95.4804" fill="#F22F2F"/>
<path d="M189.11 235.52V184.611H176.806V225.527H155.627V235.52H189.11ZM129.952 184.611V235.52H142.257V184.611H129.952ZM115.228 235.52V184.611H80.4762V194.604H102.923V205.044H82.6885V215.062H102.923V235.52H115.228ZM67.2803 235.52V184.611H31.7832V194.604H54.9756V205.044H33.5978V215.062H54.9756V225.527H31.7832V235.52H67.2803Z" fill="white"/>
<path d="M14.7571 122.941C13.3763 122.941 12.2571 124.06 12.2571 125.441C12.2571 126.822 13.3763 127.941 14.7571 127.941V122.941ZM24.4036 125.1L23.7291 122.692L24.4036 125.1ZM32.7019 124.699C33.8821 123.983 34.258 122.445 33.5414 121.265C32.8249 120.085 31.2872 119.709 30.107 120.425L32.7019 124.699ZM127.706 88.2051C126.326 88.2051 125.206 89.3244 125.206 90.7051C125.206 92.0858 126.326 93.2051 127.706 93.2051V88.2051ZM133.818 92.1977L133.353 94.6542L133.818 92.1977ZM145.15 93.9249L144.75 96.3928L145.15 93.9249ZM168.461 93.2516C169.125 92.0413 168.683 90.5215 167.473 89.857C166.262 89.1925 164.742 89.635 164.078 90.8453L168.461 93.2516ZM202.304 87.6293C200.923 87.6293 199.804 88.7486 199.804 90.1293C199.804 91.51 200.923 92.6293 202.304 92.6293V87.6293ZM209.035 91.3661L208.622 93.8316L209.035 91.3661ZM216.844 92.8161L217.297 90.3574L216.844 92.8161ZM248.336 95.4002C249.657 94.9991 250.403 93.6029 250.002 92.2818C249.601 90.9606 248.205 90.2147 246.884 90.6158L248.336 95.4002ZM60.7257 104.492C59.345 104.492 58.2257 105.611 58.2257 106.992C58.2257 108.373 59.345 109.492 60.7257 109.492V104.492ZM80.1234 106.23L79.3501 103.853L80.1234 106.23ZM87.1467 103.574L88.1827 105.849L87.1467 103.574ZM93.1994 103.175C94.4559 102.603 95.0107 101.121 94.4386 99.8642C93.8664 98.6076 92.3839 98.0528 91.1273 98.625L93.1994 103.175ZM209.939 219.734C211.311 219.89 212.549 218.904 212.706 217.533C212.862 216.161 211.876 214.922 210.504 214.766L209.939 219.734ZM210.552 211.055L208.132 210.428L208.132 210.429L210.552 211.055ZM210.556 211.04L212.976 211.667L212.977 211.665L210.556 211.04ZM214.235 205.134L216.24 206.628L214.235 205.134ZM218.081 201.242L216.636 199.202L218.081 201.242ZM223.45 199.874C224.114 198.663 223.672 197.143 222.461 196.479C221.251 195.815 219.731 196.257 219.067 197.467L223.45 199.874ZM35.0453 50.4713C2.47146 78.0177 -4.55819 117.585 3.62457 146.672C7.71166 161.2 15.666 173.353 26.413 179.988C37.2884 186.702 50.7133 187.564 65.0504 180.008L62.7193 175.585C49.8311 182.377 38.2996 181.451 29.0396 175.734C19.6512 169.937 12.2913 159.016 8.43773 145.318C0.739087 117.952 7.32209 80.4639 38.2739 54.2892L35.0453 50.4713ZM202.25 26.9607C188.54 59.0716 180.398 98.6918 186.79 128.502C190 143.471 196.933 156.201 208.917 164.092C220.898 171.981 237.498 174.75 259.454 170.69L258.545 165.773C237.395 169.684 222.232 166.873 211.667 159.916C201.104 152.961 194.708 141.579 191.679 127.454C185.594 99.0762 193.333 60.5809 206.848 28.924L202.25 26.9607ZM134.29 13.9934C114.169 50.9513 102.579 98.5786 108.848 132.026C111.993 148.811 119.738 162.453 133.635 168.999C147.459 175.51 166.648 174.647 191.895 164.164L189.978 159.546C165.312 169.787 147.747 170.119 135.765 164.475C123.856 158.865 116.741 147 113.762 131.104C107.781 99.1894 118.878 52.7591 138.682 16.3841L134.29 13.9934ZM69.9602 13.8106C46.016 50.0486 38.1281 96.9924 46.5942 131.052C50.8322 148.102 59.2545 162.228 72.1686 169.958C85.1604 177.734 102.176 178.729 122.877 170.557L121.041 165.906C101.361 173.676 86.0484 172.439 74.7365 165.668C63.3469 158.851 55.4904 146.115 51.4465 129.846C43.3489 97.2684 50.8854 51.7489 74.1318 16.5669L69.9602 13.8106ZM207.298 182.871C198.004 192.393 192.574 201.852 190.822 210.872C189.056 219.961 191.069 228.406 196.279 235.664C206.573 250.002 229.067 259.409 258.825 261.494L259.175 256.506C229.945 254.458 209.332 245.27 200.341 232.748C195.909 226.575 194.235 219.523 195.73 211.825C197.24 204.057 202.02 195.437 210.876 186.363L207.298 182.871ZM37.8685 54.7915C41.5867 51.4053 44.5323 49.1947 46.8304 47.8216C49.1595 46.43 50.6606 45.9974 51.5238 45.9391C52.2699 45.8888 52.3852 46.1092 52.3887 46.1134C52.4893 46.2356 52.6481 46.5776 52.6481 47.1866H57.6481C57.6481 45.8768 57.3329 44.2519 56.2483 42.9349C55.0666 41.5 53.2856 40.8089 51.1873 40.9505C49.206 41.0841 46.9146 41.9468 44.2658 43.5294C41.5862 45.1305 38.3688 47.5731 34.5019 51.0948L37.8685 54.7915ZM137.982 18.072C140.595 12.783 144.094 9.54771 147.99 7.68417C151.924 5.80227 156.435 5.23925 161.147 5.60527C170.631 6.34201 180.424 10.8065 186.534 14.7479L189.244 10.5463C182.712 6.3326 172.12 1.44263 161.534 0.620293C156.211 0.20678 150.767 0.813063 145.832 3.17364C140.859 5.55258 136.575 9.63298 133.499 15.8571L137.982 18.072ZM206.039 30.7761C208.76 23.3416 212.245 18.9824 215.885 16.601C219.496 14.2384 223.533 13.6432 227.745 14.2574C236.349 15.5119 245.281 21.7734 250.917 27.3729L254.441 23.8259C248.489 17.9122 238.616 10.7897 228.467 9.30977C223.303 8.55682 217.977 9.25688 213.147 12.417C208.346 15.5583 204.311 20.9493 201.344 29.0575L206.039 30.7761ZM14.7571 127.941C15.4631 127.941 16.2163 127.969 17.0399 128.001C17.8473 128.033 18.7218 128.069 19.597 128.079C21.3273 128.097 23.262 128.016 25.0782 127.507L23.7291 122.692C22.6093 123.006 21.2461 123.096 19.6498 123.079C18.8617 123.071 18.0657 123.038 17.2371 123.005C16.4247 122.973 15.5764 122.941 14.7571 122.941V127.941ZM25.0782 127.507C27.298 126.885 30.2129 126.21 32.7019 124.699L30.107 120.425C28.3576 121.487 26.3058 121.97 23.7291 122.692L25.0782 127.507ZM127.706 93.2051C128.435 93.2051 129.124 93.3751 130.029 93.6739C130.85 93.9453 132.071 94.4118 133.353 94.6542L134.282 89.7412C133.429 89.58 132.729 89.3002 131.597 88.9262C130.547 88.5796 129.248 88.2051 127.706 88.2051V93.2051ZM133.353 94.6542C133.87 94.752 134.305 94.919 135.149 95.1843C135.891 95.4174 136.89 95.6999 138.032 95.6999V90.6999C137.686 90.6999 137.288 90.6154 136.649 90.4145C136.112 90.2458 135.184 89.9117 134.282 89.7412L133.353 94.6542ZM138.032 95.6999C140.119 95.6999 142.49 96.0268 144.75 96.3928L145.549 91.457C143.272 91.0883 140.556 90.6999 138.032 90.6999V95.6999ZM144.75 96.3928C145.794 96.5617 146.851 96.5666 147.764 96.5436C148.787 96.5177 149.468 96.4676 150.266 96.4676V91.4676C149.428 91.4676 148.359 91.5269 147.637 91.5452C146.805 91.5662 146.122 91.5498 145.549 91.457L144.75 96.3928ZM150.266 96.4676C152.321 96.4676 154.337 96.2608 156.202 96.0709C158.108 95.8766 159.858 95.6999 161.587 95.6999V90.6999C159.56 90.6999 157.556 90.907 155.695 91.0966C153.791 91.2905 152.025 91.4676 150.266 91.4676V96.4676ZM161.587 95.6999C162.223 95.6999 163.412 95.642 164.56 95.4421C165.128 95.3431 165.788 95.1923 166.397 94.9487C166.893 94.7501 167.892 94.2869 168.461 93.2516L164.078 90.8453C164.252 90.5278 164.46 90.3703 164.523 90.3256C164.593 90.2767 164.612 90.2775 164.538 90.3068C164.386 90.3679 164.107 90.4458 163.702 90.5163C162.903 90.6555 162.011 90.6999 161.587 90.6999V95.6999ZM202.304 92.6293C203.17 92.6293 204.056 92.7881 205.11 93.0371C206.082 93.2665 207.372 93.622 208.622 93.8316L209.449 88.9005C208.414 88.7269 207.501 88.4641 206.259 88.1709C205.1 87.8972 203.762 87.6293 202.304 87.6293V92.6293ZM208.622 93.8316C211.219 94.2674 213.707 94.7803 216.391 95.2747L217.297 90.3574C214.761 89.8905 212.083 89.3424 209.449 88.9005L208.622 93.8316ZM216.391 95.2747C223.652 96.6121 230.77 96.6594 237.87 96.6594V91.6594C230.736 91.6594 224.049 91.6012 217.297 90.3574L216.391 95.2747ZM237.87 96.6594C241.437 96.6594 244.82 96.4675 248.336 95.4002L246.884 90.6158C244.076 91.4681 241.277 91.6594 237.87 91.6594V96.6594ZM60.7257 109.492H74.2706V104.492H60.7257V109.492ZM74.2706 109.492C76.2885 109.492 78.7319 109.312 80.8967 108.608L79.3501 103.853C77.9118 104.321 76.072 104.492 74.2706 104.492V109.492ZM80.8967 108.608C83.3618 107.806 85.7642 106.95 88.1827 105.849L86.1107 101.299C83.937 102.288 81.7348 103.077 79.3501 103.853L80.8967 108.608ZM88.1827 105.849C89.1765 105.396 90.1095 104.861 90.9204 104.396C91.7672 103.911 92.4834 103.501 93.1994 103.175L91.1273 98.625C90.1615 99.0648 89.2399 99.596 88.4342 100.058C87.5926 100.54 86.8582 100.958 86.1107 101.299L88.1827 105.849ZM210.504 214.766C211.437 214.872 211.936 215.512 212.107 215.851C212.239 216.114 212.228 216.267 212.217 216.13C212.198 215.895 212.224 215.425 212.323 214.751C212.514 213.461 212.874 212.062 212.973 211.68L208.132 210.429C208.033 210.81 207.611 212.439 207.377 214.02C207.264 214.782 207.167 215.709 207.233 216.529C207.264 216.92 207.347 217.516 207.64 218.099C207.971 218.756 208.698 219.592 209.939 219.734L210.504 214.766ZM212.972 211.682L212.976 211.667L208.136 210.413L208.132 210.428L212.972 211.682ZM212.977 211.665C213.105 211.169 213.509 210.396 214.195 209.39C214.867 208.405 215.577 207.517 216.24 206.628L212.23 203.641C211.698 204.355 210.812 205.477 210.065 206.572C209.333 207.645 208.495 209.023 208.136 210.414L212.977 211.665ZM216.24 206.628C217.156 205.398 218.423 204.064 219.526 203.283L216.636 199.202C214.974 200.379 213.348 202.141 212.23 203.641L216.24 206.628ZM219.526 203.283C219.862 203.045 220.66 202.505 221.337 201.996C221.687 201.734 222.064 201.436 222.397 201.134C222.672 200.885 223.14 200.438 223.45 199.874L219.067 197.467C219.187 197.249 219.266 197.224 219.038 197.431C218.868 197.585 218.629 197.777 218.335 197.998C217.724 198.457 217.124 198.857 216.636 199.202L219.526 203.283ZM73.0683 18.2933C77.5371 11.1712 85.5713 7.99855 94.3525 7.11125C103.105 6.22685 112.102 7.68054 117.662 9.29179L119.054 4.48935C113.026 2.7426 103.375 1.17408 93.8499 2.13658C84.353 3.09619 74.4777 6.63955 68.8329 15.6359L73.0683 18.2933Z" fill="black"/>
</svg>
